<svg width="2907" height="530" viewBox="0 0 2907 530" fill="none" xmlns="http://www.w3.org/2000/svg">
<path d="M867.273 520.32H1116V434.406H955.058V313.099H1109.49V227.186H955.058V107.089H1116V21.1758H867.273V520.32Z" fill="#323232"/>
<path d="M1178.47 520.32H1261.65V0H1178.47V520.32Z" fill="#323232"/>
<path d="M1459.73 530C1488.99 530 1515.54 522.941 1539.39 508.824C1563.23 494.707 1581.65 475.145 1594.66 450.137L1534.78 416.558C1524.49 430.272 1513.74 440.255 1502.54 446.507C1491.52 452.759 1478.79 455.885 1464.34 455.885C1441.22 455.885 1422.61 448.725 1408.52 434.406C1394.43 420.088 1387.39 401.13 1387.39 377.534H1600.08C1600.62 372.291 1600.89 368.761 1600.89 366.946C1601.07 364.93 1601.16 362.61 1601.16 359.989C1601.16 328.326 1595.02 300.596 1582.74 276.798C1570.64 253 1553.66 234.446 1531.8 221.136C1510.13 207.624 1484.84 200.868 1455.94 200.868C1427.04 200.868 1400.94 208.229 1377.64 222.951C1354.52 237.471 1336.09 257.135 1322.36 281.941C1308.64 306.747 1301.77 334.578 1301.77 365.434C1301.77 396.693 1308.64 424.726 1322.36 449.532C1336.27 474.338 1355.15 494.001 1378.99 508.522C1402.83 522.841 1429.75 530 1459.73 530ZM1390.37 326.107C1392.18 308.158 1398.86 294.041 1410.42 283.756C1421.98 273.47 1436.79 268.328 1454.85 268.328C1472.01 268.328 1486.28 273.47 1497.66 283.756C1509.22 294.041 1516.45 308.158 1519.34 326.107H1390.37Z" fill="#323232"/>
<path d="M1642.14 520.32H1725.32V331.855C1725.32 316.124 1730.46 302.713 1740.76 291.621C1751.24 280.529 1764.51 274.983 1780.59 274.983C1796.66 274.983 1809.22 280.731 1818.25 292.226C1827.46 303.721 1832.07 319.049 1832.07 338.208V520.32H1915.25V330.947C1915.25 315.419 1920.3 302.209 1930.42 291.318C1940.71 280.428 1953.99 274.983 1970.25 274.983C1985.96 274.983 1998.52 280.831 2007.91 292.529C2017.3 304.024 2022 319.855 2022 340.023V520.32H2105.18V314.612C2105.18 291.419 2100.66 271.353 2091.63 254.412C2082.78 237.27 2070.59 224.06 2055.05 214.783C2039.52 205.506 2021.73 200.868 2001.68 200.868C1981.63 200.868 1963.83 205.809 1948.3 215.691C1932.77 225.573 1918.23 240.295 1904.68 259.857C1897.27 241.908 1884.99 227.589 1867.83 216.901C1850.67 206.212 1831.44 200.868 1810.12 200.868C1779.96 200.868 1751.69 215.59 1725.32 245.034V210.548H1642.14V520.32Z" fill="#323232"/>
<path d="M2165.82 520.32H2248.99V336.998C2248.99 319.049 2254.32 304.024 2264.98 291.924C2275.64 279.621 2290.18 273.47 2308.6 273.47C2326.66 273.47 2340.84 279.722 2351.14 292.226C2361.62 304.528 2366.85 321.771 2366.85 343.956V520.32H2450.03V324.292C2450.03 299.688 2445.43 278.21 2436.21 259.857C2427 241.303 2414.27 226.884 2398.01 216.598C2381.94 206.111 2363.24 200.868 2341.93 200.868C2322.78 200.868 2305.17 205.002 2289.09 213.271C2273.02 221.338 2259.65 231.925 2248.99 245.034V210.548H2165.82V520.32Z" fill="#323232"/>
<path d="M2602.04 530C2613.24 530 2624.62 528.387 2636.18 525.16C2647.92 521.933 2658.48 517.496 2667.88 511.849L2647.01 437.431C2639.25 443.885 2630.94 447.112 2622.09 447.112C2605.83 447.112 2597.7 435.213 2597.7 411.416V281.033H2658.67V210.548H2597.7V94.3835H2514.52V210.548H2477.41V281.033H2514.52V418.071C2514.52 453.364 2522.2 480.892 2537.55 500.656C2553.09 520.219 2574.58 530 2602.04 530Z" fill="#323232"/>
<path d="M2785.32 530C2823.61 530 2853.41 520.925 2874.73 502.774C2896.22 484.422 2906.97 458.406 2906.97 424.726C2906.97 406.374 2903.9 391.752 2897.76 380.862C2891.62 369.77 2883.13 360.795 2872.29 353.938C2861.63 347.081 2849.35 340.83 2835.44 335.183C2826.95 331.754 2818.01 328.023 2808.62 323.99C2799.41 319.755 2791.55 314.914 2785.05 309.469C2778.72 304.024 2775.56 297.772 2775.56 290.713C2775.56 283.05 2778.63 276.697 2784.78 271.655C2790.92 266.613 2799.14 264.092 2809.43 264.092C2827.67 264.092 2848.54 272.462 2872.02 289.201L2900.47 229.606C2866.15 210.85 2835.62 201.473 2808.89 201.473C2786.85 201.473 2767.34 205.607 2750.37 213.876C2733.57 222.144 2720.38 233.64 2710.81 248.362C2701.24 262.882 2696.45 279.722 2696.45 298.881C2696.45 314.814 2699.61 327.922 2705.93 338.208C2712.43 348.291 2720.83 356.661 2731.13 363.316C2741.42 369.971 2752.17 375.921 2763.37 381.164C2782.88 390.24 2797.24 397.399 2806.45 402.643C2815.66 407.685 2820.27 416.155 2820.27 428.054C2820.27 438.742 2817.02 447.011 2810.51 452.86C2804.19 458.506 2795.79 461.33 2785.32 461.33C2759.67 461.33 2734.92 447.213 2711.08 418.978L2676.13 481.296C2701.05 513.765 2737.45 530 2785.32 530Z" fill="#323232"/>
<path d="M426.873 116.717C441.545 118.207 454.995 125.657 464.777 137.576L668.967 432.576C677.525 444.495 673.857 453.434 660.408 453.434H536.916C522.243 451.944 508.794 444.495 499.012 432.576L293.599 137.576C285.041 125.657 288.709 116.717 302.158 116.717H426.873ZM472.113 501.111C481.894 514.52 495.344 521.97 510.016 521.97H782.677C794.904 521.97 798.572 513.03 791.236 501.111L491.676 69.0404C480.672 55.6313 467.222 48.1818 452.55 48.1818H233.687C219.015 49.6717 204.343 55.6313 193.339 66.0606L7.489 253.788C-1.06986 262.727 -2.29255 277.626 3.82092 288.056C5.04361 289.545 5.04361 289.545 6.26631 291.035L107.75 408.737C117.531 419.167 132.204 419.167 141.985 410.227L264.255 279.116C274.036 268.687 271.591 261.237 258.141 261.237H113.863C101.636 261.237 99.1911 253.788 108.973 243.359L199.452 150.985C209.234 140.556 223.906 142.045 231.242 153.965L472.113 501.111Z" fill="url(#paint0_linear)"/>
<defs>
<linearGradient id="paint0_linear" x1="-397.5" y1="285.076" x2="19.2136" y2="984.307" gradientUnits="userSpaceOnUse">
<stop offset="0.016129" stop-color="#0EE0F1"/>
<stop offset="0.913979" stop-color="#BE58CB"/>
</linearGradient>
</defs>
</svg>
